<svg width="800" height="800" xmlns="http://www.w3.org/2000/svg">

 <g>
  <title>background</title>
  <rect fill="none" id="canvas_background" height="402" width="582" y="-1" x="-1"/>
 </g>
 <g>
  <title>Layer 1</title>
  <path id="svg_1" fill="#fc5c7d" d="m771.9,400c0,205.3 -166.6,371.9 -371.9,371.9s-371.9,-166.6 -371.9,-371.9s166.6,-371.9 371.9,-371.9s371.9,166.6 371.9,371.9z"/>
  <path id="svg_2" stroke-width="16" stroke-miterlimit="10" stroke-linecap="round" stroke="#FFFFFF" fill="none" d="m415.2,192.1l38.4,118.1c2.1,6.6 8.3,11.1 15.2,11.1l124.2,0c15.5,0 21.9,19.8 9.4,28.9l-100.5,73c-5.6,4.1 -8,11.3 -5.8,17.9l38.4,118.1c4.8,14.7 -12.1,27 -24.6,17.9l-100.5,-73c-5.6,-4.1 -13.2,-4.1 -18.8,0l-100.5,73c-12.5,9.1 -29.4,-3.1 -24.6,-17.9l38.4,-118.1c2.1,-6.6 -0.2,-13.8 -5.8,-17.9l-100.5,-73c-12.5,-9.1 -6.1,-28.9 9.4,-28.9l124.2,0c6.9,0 13.1,-4.5 15.2,-11.1l38.4,-118.1c4.8,-14.8 25.6,-14.8 30.4,0z"/>
 </g>
</svg>