
<svg width="64" height="64" xmlns="http://www.w3.org/2000/svg">
 <g>
  <title>background</title>
  <rect fill="none" id="canvas_background" height="402" width="582" y="-1" x="-1"/>
 </g>
 <g>
  <title>Layer 1</title>
  <circle id="svg_2" r="32" fill="#b26fbd" cy="32" cx="32"/>
  <path opacity="0.2" id="svg_4" fill="#231F20" d="m48,14l-32,0c-2.209,0 -4,1.791 -4,4l0,5.5l0,26.5c0,2.209 1.791,4 4,4l32,0c2.209,0 4,-1.791 4,-4l0,-26.5l0,-5.5c0,-2.209 -1.791,-4 -4,-4z"/>
  <path id="svg_6" fill="#E0995E" d="m48,12l-32,0c-2.209,0 -4,1.791 -4,4l0,5.5l0,26.5c0,2.209 1.791,4 4,4l32,0c2.209,0 4,-1.791 4,-4l0,-26.5l0,-5.5c0,-2.209 -1.791,-4 -4,-4z"/>
  <rect opacity="0.2" id="svg_8" y="18" x="16" width="32" height="32" fill="#231F20"/>
  <rect id="svg_10" y="16" x="16" width="32" height="32" fill="#FFFFFF"/>
  <rect id="svg_12" y="24" x="22" width="20" height="2" fill="#E0E0D1"/>
  <rect id="svg_14" y="28" x="22" width="20" height="2" fill="#E0E0D1"/>
  <rect id="svg_16" y="32" x="22" width="20" height="2" fill="#E0E0D1"/>
  <rect id="svg_18" y="36" x="22" width="20" height="2" fill="#E0E0D1"/>
  <rect id="svg_20" y="40" x="22" width="20" height="2" fill="#E0E0D1"/>
  <path opacity="0.2" id="svg_22" fill="#231F20" d="m37,12l-10,0l-3,0l0,3l0,1l0,1c0,1.657 1.343,3 3,3l10,0c1.657,0 3,-1.343 3,-3l0,-1l0,-1l0,-3l-3,0z"/>
  <path id="svg_24" fill="#4F5D73" d="m37,10l-10,0l-3,0l0,3l0,1l0,1c0,1.657 1.343,3 3,3l10,0c1.657,0 3,-1.343 3,-3l0,-1l0,-1l0,-3l-3,0z"/>
 </g>
</svg>