
<svg width="467.39999" height="467.39099" xmlns="http://www.w3.org/2000/svg">

 <g>
  <title>background</title>
  <rect fill="none" id="canvas_background" height="402" width="582" y="-1" x="-1"/>
 </g>
 <g>
  <title>Layer 1</title>
  <path clip-rule="evenodd" fill="#6a82fb" fill-rule="evenodd" id="path4" d="m233.7,0c129.123,0 233.7,104.582 233.7,233.695c0,129.118 -104.577,233.695 -233.7,233.695c-129.118,0 -233.7,-104.577 -233.7,-233.695c0,-129.113 104.582,-233.695 233.7,-233.695z"/>
  <path clip-rule="evenodd" fill="#6a82fb" fill-rule="evenodd" id="path6" d="m463.024,279.084c-21.187,107.269 -116.001,188.307 -229.324,188.307c-70.612,0 -133.828,-31.27 -176.53,-80.704l54.813,-54.799c5.717,-5.726 12.774,-7.739 19.498,-6.728c5.721,-5.717 11.433,-11.434 17.479,-17.15c-38.656,-48.423 -35.301,-119.04 9.085,-163.751c48.089,-48.084 126.432,-48.084 174.516,0c44.042,44.038 87.427,89.436 130.463,134.825z"/>
  <polygon clip-rule="evenodd" fill="#37373e" fill-rule="evenodd" points="113.31899642944336,377.2660140991211 93.48299789428711,357.1060104370117 163.7609977722168,286.8189926147461 183.93999862670898,306.6639938354492 " id="polygon8"/>
  <path clip-rule="evenodd" fill="#4b4b55" fill-rule="evenodd" id="path10" d="m23.878,413.927c-9.076,9.081 -9.076,22.866 0,31.942l0,0c8.751,8.737 22.871,8.737 31.617,0l85.404,-85.404c9.081,-9.085 9.081,-22.871 0,-31.951l0,0c-9.08,-9.071 -22.871,-9.071 -31.946,0l-85.075,85.413z"/>
  <path clip-rule="evenodd" fill="#ffffff" fill-rule="evenodd" id="path12" d="m329.531,141.219c47.745,47.75 47.745,126.107 0,174.182c-48.085,48.085 -126.427,48.085 -174.512,0c-48.08,-48.075 -48.08,-126.432 0,-174.182c48.085,-48.07 126.427,-48.07 174.512,0zm-153.33,153.005c35.979,35.979 94.828,35.979 131.479,0c35.979,-35.983 35.979,-94.829 0,-131.48c-35.979,-35.979 -94.828,-35.979 -131.479,0c-35.97,35.979 -35.97,94.834 0,131.48z"/>
  <path clip-rule="evenodd" fill="#6a82fb" fill-rule="evenodd" id="path14" d="m176.201,294.224c-35.97,-36.646 -35.97,-95.501 0,-131.48c36.651,-35.979 95.501,-35.979 131.479,0c35.979,36.651 35.979,95.497 0,131.48c-36.651,35.979 -95.5,35.979 -131.479,0z"/>
  <path clip-rule="evenodd" fill="#ffffff" fill-rule="evenodd" id="path16" d="m297.594,285.144c33.287,-32.954 33.287,-87.089 0,-120.72c-2.357,-2.348 -4.715,-4.7 -7.063,-6.719c4.705,3.359 9.071,7.057 13.108,11.104c33.292,33.612 33.292,87.428 0,120.705c-30.926,30.602 -80.027,32.954 -113.314,6.395c32.949,21.859 78.008,18.151 107.269,-10.765z"/>
 </g>
</svg>